<?xml version="1.0" encoding="utf-8"?>
<!-- Generator: Adobe Illustrator 21.1.0, SVG Export Plug-In . SVG Version: 6.00 Build 0)  -->
<svg version="1.1" id="Layer_1" xmlns="http://www.w3.org/2000/svg" xmlns:xlink="http://www.w3.org/1999/xlink" x="0px" y="0px"
	 viewBox="0 0 159.1 159.1" style="enable-background:new 0 0 159.1 159.1;" xml:space="preserve">
<style type="text/css">
	.st0{fill:#04519C;}
	.st1{fill:none;stroke:#04519C;stroke-width:7;stroke-miterlimit:10;}
	.st2{fill:none;stroke:#E01919;stroke-miterlimit:10;}
</style>
<g>
	<g>
		<path class="st0" d="M87.5,105.3l-4-17.5c2.2-1.9,3.5-4.8,3.5-7.7c0-5.6-4.4-10-9.5-10c-5.1,0-9.5,4.6-9.5,10
			c0,3.1,1.3,5.8,3.5,7.7l-4,17.5H87.5z M77.3,74.7c2.9,0,5.1,2.5,5.1,5.4c0,1.9-0.9,3.9-2.6,4.8l-1.5,0.8l3.7,15h-9.1l3.5-15
			l-1.6-0.8c-1.6-1-2.6-2.9-2.6-4.8C72.2,77.2,74.6,74.7,77.3,74.7z"/>
	</g>
	<path class="st0" d="M107,58.3V45.5c0-8.9-6.9-16.4-15.5-16.4H63.8c-8.5,0-15.5,7.3-15.5,16.4v12.9H37.2v60.4h80.1V58.3H107z
		 M53,46.3c0-6.6,5.1-12.1,11.5-12.1h26.9c6.3,0,11.5,5.4,11.5,12.1v12h-3.8v-9.7c0-7.3-3.5-11.1-10.4-11.1H67
		c-6.9,0-10.4,3.8-10.4,11.1l0,9.7h-3.8l0-12.1H53z M111.1,111.8H44V64.9h16.4v-3.4l0,0V49.9c0-4.5,3.5-8.3,7.9-8.3h19.1
		c4.3,0,7.9,3.7,7.9,8.3v8.4l-25.3,0v6.6h41.2C111.1,64.9,111.1,111.8,111.1,111.8z"/>
</g>
<path class="st1" d="M147.2,104c-10.3,27.1-36.6,46.4-67.4,46.4c-39.8,0-72.1-32.3-72.1-72.1"/>
<path class="st2" d="M35.8,44"/>
<path class="st1" d="M151.8,82c0.1-1.2,0.1-2.4,0.1-3.6c0-39.8-32.3-72.1-72.1-72.1c-31.5,0-58.3,20.2-68.1,48.3"/>
<polyline class="st1" points="121.7,113.9 147.3,103.9 154.7,130.8 "/>
<polyline class="st1" points="37,45.1 11.4,55.2 4,28.2 "/>
</svg>
