<?xml version="1.0" encoding="utf-8"?>
<!-- Generator: Adobe Illustrator 19.2.1, SVG Export Plug-In . SVG Version: 6.00 Build 0)  -->
<svg version="1.1" id="Layer_1" xmlns="http://www.w3.org/2000/svg" xmlns:xlink="http://www.w3.org/1999/xlink" x="0px" y="0px"
	 viewBox="0 0 159.1 159.1" style="enable-background:new 0 0 159.1 159.1;" xml:space="preserve">
<style type="text/css">
	.st0{fill:#004F9F;}
</style>
<path class="st0" d="M133.6,2.2c12.8,0,23.2,10.4,23.2,23.2v108.1c0,12.8-10.4,23.2-23.2,23.2H25.5c-12.8,0-23.2-10.4-23.2-23.2
	V25.5c0-12.8,10.4-23.2,23.2-23.2H133.6 M133.6,0H25.5C11.5,0,0,11.5,0,25.5v108.1c0,14,11.5,25.5,25.5,25.5h108.1
	c14,0,25.5-11.5,25.5-25.5V25.5C159.1,11.5,147.6,0,133.6,0"/>
<g>
	<polygon class="st0" points="73.1,78.6 119.2,78.6 106,91.8 107.7,93.5 123.8,77.4 107.6,61.2 105.9,62.9 119.2,76.2 73.1,76.2 	
		"/>
	<path class="st0" d="M128.1,42.2H71.9c-2.7,0-4.8,2.2-4.8,4.8v20.7h2.4V47c0-1.3,1.1-2.4,2.4-2.4h56.2c1.3,0,2.4,1.1,2.4,2.4v65
		c0,1.3-1.1,2.4-2.4,2.4H71.9c-1.3,0-2.4-1.1-2.4-2.4V91.3h-2.4V112c0,2.7,2.2,4.8,4.8,4.8h56.2c2.7,0,4.8-2.2,4.8-4.8V47
		C133,44.4,130.8,42.2,128.1,42.2z"/>
	<path class="st0" d="M50.7,74h-0.7c2.4-2,4-5,4-8.4c0-5.9-4.8-10.8-10.8-10.8s-10.8,4.8-10.8,10.8c0,3.4,1.6,6.4,4,8.4h-0.7
		c-5.3,0-9.6,5.8-9.6,13v18h2.4v-18c0-5.8,3.3-10.6,7.2-10.6h15c3.9,0,7.2,4.9,7.2,10.6v18h2.4v-18C60.3,79.9,56,74,50.7,74z
		 M34.8,65.7c0-4.6,3.8-8.4,8.4-8.4s8.4,3.8,8.4,8.4S47.8,74,43.2,74S34.8,70.3,34.8,65.7z"/>
</g>
</svg>
