<?xml version="1.0" encoding="utf-8"?>
<!-- Generator: Adobe Illustrator 21.1.0, SVG Export Plug-In . SVG Version: 6.00 Build 0)  -->
<svg version="1.1" id="Layer_1" xmlns="http://www.w3.org/2000/svg" xmlns:xlink="http://www.w3.org/1999/xlink" x="0px" y="0px"
	 viewBox="0 0 159.1 159.1" style="enable-background:new 0 0 159.1 159.1;" xml:space="preserve">
<style type="text/css">
	.st0{fill:#004F9F;}
	.st1{fill:none;stroke:#004F9F;stroke-width:7;stroke-miterlimit:10;}
</style>
<g>
	<path class="st0" d="M118.4,35.1H60.3c-2.8,0-5,2.6-5,5.7v24.6h5.6V44.5c0-1.5,1.1-2.8,2.5-2.8h51.9c1.3,0,2.5,1.3,2.5,2.8v70
		c0,1.5-1.1,2.8-2.5,2.8H63.4c-1.3,0-2.5-1.3-2.5-2.8V93.4h-5.6v24.6c0,3.2,2.3,5.7,5,5.7h58.1c2.8,0,5-2.6,5-5.7v-77
		C123.3,37.7,121.1,35.1,118.4,35.1z"/>
	<path class="st0" d="M76.4,86.8v21.4H82V86.8c0-6.9,0.3-9,4.3-9h15.5c4,0,4.3,2.3,4.3,9v21.4h5.6V86.8c0-13.7-0.2-13.1-9.9-15.4
		h-0.7c2.5-2.4,4.1-5.9,4.1-10c0-7-5-12.8-11.2-12.8c-6.2,0-11.2,5.7-11.2,12.8c0,4,1.7,7.6,4.1,10h-0.7
		C75.2,73.4,76.4,78.3,76.4,86.8z M87.5,61.4c0-4.2,3.1-7.7,6.7-7.7c3.7,0,6.7,3.5,6.7,7.7s-3.1,7.7-6.7,7.7
		C90.5,69.2,87.5,65.7,87.5,61.4z"/>
	<polygon class="st0" points="71.1,83.3 71.1,76.9 26.8,76.9 38.4,62.3 33.6,60.3 18,79.5 33.6,98.6 38.4,96.6 26.6,83 	"/>
</g>
<circle class="st1" cx="78.7" cy="79.4" r="73"/>
</svg>
