<?xml version="1.0" encoding="utf-8"?>
<!-- Generator: Adobe Illustrator 21.1.0, SVG Export Plug-In . SVG Version: 6.00 Build 0)  -->
<svg version="1.1" id="Layer_1" xmlns="http://www.w3.org/2000/svg" xmlns:xlink="http://www.w3.org/1999/xlink" x="0px" y="0px"
	 viewBox="0 0 159.1 159.1" style="enable-background:new 0 0 159.1 159.1;" xml:space="preserve">
<style type="text/css">
	.st0{fill:#004F9F;}
	.st1{fill:none;stroke:#004F9F;stroke-width:7;stroke-miterlimit:10;}
</style>
<g>
	<path class="st0" d="M79.5,3.8C37.8,3.8,3.8,37.7,3.8,79.5s34,75.7,75.7,75.7s75.7-34,75.7-75.7S121.3,3.8,79.5,3.8z M104.4,105.3
		c3.9,0,7.5,0.2,10.2,2.4c2.6,1.9,4,5.7,4,8.5l1.7,23.7c-8.3,5.6-17.7,9.4-28,11.3l-3.2-33.4h-0.4l5-12.4H104.4z M84.3,117.6h-6.5
		L72.6,105l16.8,0.1L84.3,117.6z M68.4,105l5.2,12.7h-0.3l-4,33.8c-10.1-1.4-20.5-5-29-10.2l2.3-28c1.6-7.2,7.3-8.4,15.2-8.4
		c0.1,0,0.1,0,0.3,0L68.4,105z M73.3,151.9l3.6-30.1h8.4l3,29.8c-3.1,0.4-5.3,0.6-8.6,0.6C77,152.2,75.7,152.1,73.3,151.9z
		 M125.1,137.6l-1.6-21.6c0-3.8-1.8-9.2-5.2-11.8c-3.2-2.5-9.5-3.9-14-4L58,99.8c-0.1,0-0.1,0-0.3,0c-14.1,0.5-20.2,6-20.2,13.3
		l-2.2,26.2c-19-13.1-28.5-34.9-28.5-59.8c0-40.1,32.6-72.6,72.6-72.6s72.6,32.6,72.6,72.6C152.2,103.3,142.7,124.4,125.1,137.6z"/>
	<path class="st0" d="M80.7,28.7c-19.2,0-34.9,15.3-34.9,34.1c0,19.2,15.6,34.8,34.9,34.8c19.2,0,34.9-15.6,34.9-34.8
		C115.7,44,99.9,28.7,80.7,28.7z M80.7,91.7c-16,0-29-12.9-29-28.9c0-15.6,13.1-28.3,29-28.3s29,12.8,29,28.3
		C109.8,78.8,96.7,91.7,80.7,91.7z"/>
</g>
<circle class="st1" cx="79.7" cy="79.7" r="74"/>
</svg>
